<?xml version="1.0" standalone="no"?>
<!DOCTYPE svg PUBLIC "-//W3C//DTD SVG 20010904//EN"
 "http://www.w3.org/TR/2001/REC-SVG-20010904/DTD/svg10.dtd">
<svg version="1.0" xmlns="http://www.w3.org/2000/svg"
 width="2000.000000pt" height="2000.000000pt" viewBox="0 0 2000.000000 2000.000000"
 preserveAspectRatio="xMidYMid meet">
<metadata>
Created by potrace 1.11, written by Peter Selinger 2001-2013
</metadata>
<g transform="translate(0.000000,2000.000000) scale(0.100000,-0.100000)"
fill="#000000" stroke="none">
<path d="M11905 18904 c-137 -40 -272 -80 -300 -89 -27 -8 -59 -17 -70 -20
-11 -2 -105 -30 -210 -60 -104 -31 -212 -62 -240 -70 -27 -7 -151 -43 -275
-80 -124 -36 -232 -67 -240 -70 -8 -2 -69 -19 -135 -38 -249 -73 -581 -170
-615 -179 -19 -5 -142 -41 -274 -80 -131 -38 -246 -71 -255 -73 -9 -2 -45 -12
-81 -23 -36 -11 -91 -27 -122 -36 l-58 -17 0 -2369 0 -2369 -1460 0 -1460 0
-1 1937 c-1 1065 -1 1941 0 1946 1 5 -6 6 -16 3 -10 -2 -121 -35 -248 -72
-126 -37 -248 -71 -270 -77 -22 -5 -49 -13 -60 -18 -20 -8 -192 -58 -224 -65
-9 -2 -79 -22 -156 -45 -77 -23 -187 -55 -245 -71 -58 -17 -213 -62 -345 -100
-132 -39 -301 -88 -375 -109 -74 -22 -214 -62 -310 -90 -96 -28 -204 -60 -240
-71 -36 -10 -74 -21 -85 -24 -11 -2 -83 -23 -160 -45 -77 -23 -178 -53 -225
-66 -47 -14 -89 -26 -95 -28 -5 -2 -25 -7 -43 -11 -18 -4 -36 -13 -40 -19 -3
-6 -7 -677 -7 -1491 l0 -1480 -1275 -2 c-701 -2 -1310 -3 -1352 -3 l-78 0 0
-1289 0 -1289 1332 0 c733 0 1342 -1 1353 -1 20 -1 20 -8 21 -2574 0 -2255 4
-2822 19 -3032 1 -27 6 -93 10 -145 3 -52 8 -111 10 -130 2 -19 6 -71 10 -114
4 -44 8 -87 10 -95 1 -9 6 -50 10 -91 4 -41 9 -84 11 -95 2 -11 7 -38 10 -60
2 -22 12 -83 20 -135 9 -52 18 -108 21 -125 30 -194 120 -548 190 -754 72
-211 235 -572 313 -694 15 -23 46 -73 71 -112 24 -38 47 -74 51 -80 5 -5 39
-50 76 -100 96 -127 104 -137 232 -265 129 -129 135 -134 275 -240 215 -163
434 -286 695 -390 149 -60 404 -139 499 -155 19 -3 37 -8 40 -10 12 -7 325
-63 466 -84 164 -23 184 -26 380 -47 28 -3 66 -7 85 -9 19 -2 78 -7 130 -11
52 -3 113 -8 135 -9 334 -26 1148 -26 1500 0 28 2 91 6 141 9 50 4 108 8 130
10 21 2 73 7 114 11 101 8 170 15 200 20 14 2 52 6 85 10 33 3 71 8 85 10 14
2 50 6 80 9 30 3 64 7 75 10 11 2 45 7 75 10 30 4 66 8 80 11 26 4 74 11 138
20 20 4 62 10 92 16 30 5 73 12 95 15 22 4 128 25 235 48 l195 41 1056 3 1056
2 1 2793 c1 1535 1 2798 2 2806 0 28 445 -434 711 -740 31 -35 69 -80 85 -99
16 -19 33 -40 39 -46 5 -6 28 -33 51 -60 23 -27 66 -78 95 -114 360 -431 850
-1070 1246 -1625 106 -148 199 -278 206 -289 6 -10 20 -29 30 -41 41 -54 549
-820 582 -878 6 -9 51 -81 100 -160 50 -78 95 -150 100 -159 6 -9 78 -131 161
-270 152 -253 239 -404 329 -573 110 -203 138 -257 207 -397 l73 -148 1782 0
1782 0 -17 38 c-41 89 -191 367 -317 587 -221 384 -467 777 -750 1199 -110
164 -204 306 -210 315 -5 9 -32 48 -60 86 -234 331 -291 411 -298 420 -4 6
-37 51 -73 100 -36 50 -73 101 -84 115 -331 440 -422 558 -514 677 -114 145
-539 678 -546 683 -3 3 -24 28 -46 55 -72 89 -438 530 -444 535 -3 3 -41 48
-85 100 -43 52 -81 97 -84 100 -4 3 -60 68 -126 145 -66 77 -134 156 -151 175
-165 186 -305 343 -340 380 -41 44 -111 120 -174 190 -86 95 -395 413 -554
571 l-179 178 44 48 c24 26 48 53 54 59 5 6 48 53 95 105 47 51 96 105 110
120 14 15 66 71 115 124 105 113 139 150 209 225 28 30 110 118 181 195 72 77
141 152 155 166 50 52 258 274 420 449 151 163 261 283 348 379 13 14 35 40
51 56 15 17 53 59 86 95 32 36 76 85 99 110 23 25 70 79 106 119 36 41 74 84
85 97 11 12 47 52 80 90 33 37 65 72 70 78 6 6 37 43 70 81 33 39 62 72 65 75
9 9 135 154 161 184 13 16 31 37 39 45 8 9 42 48 75 86 33 39 72 84 87 100 14
17 61 71 103 120 43 50 81 92 84 95 3 3 23 26 44 52 21 26 43 53 50 60 7 7 69
78 137 158 68 80 129 150 135 156 5 6 26 30 45 54 19 24 40 49 47 56 10 9 362
425 432 509 55 67 168 203 183 220 26 31 249 307 284 351 18 21 80 99 139 172
58 74 104 136 102 138 -3 4 -2559 6 -3623 4 l-111 0 -83 -142 c-241 -415 -583
-933 -1224 -1853 -107 -154 -208 -298 -223 -320 -155 -222 -555 -774 -620
-855 -7 -8 -55 -71 -108 -140 -52 -69 -106 -138 -119 -155 -13 -16 -95 -120
-182 -230 -87 -110 -160 -202 -163 -205 -3 -3 -53 -63 -110 -135 -110 -137
-179 -222 -196 -241 -5 -6 -28 -32 -50 -59 -22 -26 -57 -69 -79 -94 -21 -25
-47 -57 -59 -71 -11 -14 -34 -41 -51 -60 -17 -20 -49 -57 -70 -83 -22 -26 -42
-47 -45 -47 -3 0 -5 2326 -3 5170 1 2843 -1 5169 -5 5169 -4 -1 -120 -34 -258
-75z m-2910 -8153 l40 -1 -2 -3401 c0 -1870 -3 -3402 -5 -3404 -1 -2 -21 -6
-43 -9 -37 -6 -67 -9 -200 -21 -27 -3 -72 -7 -100 -9 -48 -5 -175 -11 -415
-22 -163 -6 -568 -6 -675 0 -318 21 -597 84 -768 173 -265 139 -460 378 -584
713 -29 77 -69 208 -78 249 -2 9 -9 39 -15 66 -6 28 -14 66 -16 85 -3 19 -7
46 -9 60 -6 42 -24 172 -29 220 -17 142 -20 546 -20 2805 l-1 2490 40 5 c30 4
2648 4 2880 1z"/>
</g>
</svg>
